<?xml version="1.0" encoding="UTF-8" standalone="no"?>
<!-- Created with Inkscape (http://www.inkscape.org/) -->

<svg
   width="64"
   height="64"
   viewBox="0 0 16.933333 16.933333"
   version="1.1"
   id="svg135"
   inkscape:version="1.2.1 (1:1.2.1+202210291244+9c6d41e410)"
   sodipodi:docname="rl-credits-favicon.svg"
   xml:space="preserve"
   inkscape:export-filename="rl-credits-favicon.png"
   inkscape:export-xdpi="48"
   inkscape:export-ydpi="48"
   xmlns:inkscape="http://www.inkscape.org/namespaces/inkscape"
   xmlns:sodipodi="http://sodipodi.sourceforge.net/DTD/sodipodi-0.dtd"
   xmlns="http://www.w3.org/2000/svg"
   xmlns:svg="http://www.w3.org/2000/svg"><sodipodi:namedview
     id="namedview137"
     pagecolor="#ffffff"
     bordercolor="#000000"
     borderopacity="0.25"
     inkscape:showpageshadow="2"
     inkscape:pageopacity="0.0"
     inkscape:pagecheckerboard="0"
     inkscape:deskcolor="#d1d1d1"
     inkscape:document-units="mm"
     showgrid="true"
     inkscape:zoom="8"
     inkscape:cx="16.6875"
     inkscape:cy="32.9375"
     inkscape:window-width="1920"
     inkscape:window-height="1129"
     inkscape:window-x="0"
     inkscape:window-y="0"
     inkscape:window-maximized="1"
     inkscape:current-layer="layer1"
     showguides="true"><inkscape:grid
       type="xygrid"
       id="grid1216" /></sodipodi:namedview><defs
     id="defs132"><inkscape:path-effect
       effect="spiro"
       id="path-effect606"
       is_visible="true"
       lpeversion="1" /></defs><g
     inkscape:label="Main"
     id="layer1"
     style="display:inline"
     transform="translate(0,-0.06431133)"
     inkscape:groupmode="layer"><path
       id="path631-3"
       style="display:inline;fill:#000000;stroke:none;stroke-width:0.301694;stroke-dasharray:none"
       d="M 15.378263,9.8129411 C 16.107569,7.8786928 16.744408,4.1948134 16.744408,4.1948134 L 13.351613,0.31029995 c -3.256632,-0.004015 -6.5132605,-0.001565 -9.7698916,0 L 0.18892588,4.1948134 c 0,0 0.63683806,3.6838795 1.36614372,5.6181277 1.99011,3.9692299 3.6757813,5.5192349 6.9115968,6.9408999 3.2358156,-1.421665 4.9214846,-2.97167 6.9115966,-6.9408999 z M 1.6898672,4.7644795 4.5194434,1.4566651 c 2.6315143,-0.027092 5.2629294,-0.010559 7.8944476,0 l 2.829576,3.3078144 c 0,0 -0.585181,7.7842315 -6.7768006,10.6150135 C 2.2750535,12.548723 1.6898672,4.7644795 1.6898672,4.7644795 Z"
       sodipodi:nodetypes="cccccccccccccc" /><path
       id="path3507"
       style="display:inline;fill:#000000;stroke:none;stroke-width:0.301694;stroke-dasharray:none"
       d="m 6.3860964,2.6134075 1.6216729,1.7341997 h 2.0366147 l 0.959993,0.9599929 1.792808,-1.0350107 -1.50856,-1.6591819 z M 6.084267,3.1408761 5.8017783,4.0082689 6.3175254,4.5246022 5.2883755,8.3669182 4.6864751,8.5280892 4.1519737,10.523094 5.6699112,12.041032 H 9.7988188 L 11.797925,10.042511 H 9.4032172 L 9.0070293,10.438113 H 6.9516599 L 6.5560585,10.042511 7.866525,4.9231341 Z"
       sodipodi:nodetypes="cccccccccccccccccccccc" /></g></svg>
